<?xml version="1.0" standalone="no"?>
<!DOCTYPE svg PUBLIC "-//W3C//DTD SVG 20010904//EN"
 "http://www.w3.org/TR/2001/REC-SVG-20010904/DTD/svg10.dtd">
<svg version="1.0" xmlns="http://www.w3.org/2000/svg"
 width="440.000000pt" height="440.000000pt" viewBox="0 0 440.000000 440.000000"
 preserveAspectRatio="xMidYMid meet">
<metadata>
Created by potrace 1.11, written by Peter Selinger 2001-2013
</metadata>
<g transform="translate(0.000000,440.000000) scale(0.100000,-0.100000)"
fill="#000000" stroke="none">
<path d="M1349 4178 c-12 -13 -30 -42 -41 -65 -25 -55 -13 -104 40 -163 l38
-43 27 28 c42 46 43 77 8 145 -17 32 -31 73 -31 90 0 36 -12 38 -41 8z"/>
<path d="M1077 4062 c-3 -4 -8 -27 -12 -52 -8 -56 -39 -115 -109 -212 -66 -92
-95 -146 -112 -213 -19 -70 -18 -72 23 -80 46 -8 112 -42 134 -66 20 -23 25
-24 33 -3 4 9 0 24 -7 33 -35 40 -40 113 -12 175 l13 31 1 -38 c1 -30 8 -46
33 -69 28 -26 33 -28 44 -14 6 9 15 16 21 16 20 0 135 -128 156 -172 12 -27
26 -48 32 -48 5 0 27 17 48 38 36 34 39 35 32 12 -4 -14 -16 -42 -25 -62 -10
-21 -17 -38 -15 -38 2 0 28 5 57 11 28 6 68 12 88 13 33 1 36 4 47 46 15 60 7
190 -17 253 -22 58 -74 120 -97 115 -9 -2 -22 -24 -30 -50 -12 -41 -62 -108
-82 -108 -4 0 -8 30 -9 67 -2 68 -21 154 -46 215 -36 84 -172 229 -189 200z"/>
<path d="M2337 3542 c-22 -25 -13 -48 24 -61 16 -5 29 -15 29 -20 0 -6 7 -11
15 -11 8 0 24 -9 35 -20 11 -11 26 -20 33 -20 8 0 22 -9 32 -20 10 -11 24 -20
30 -20 7 0 18 -7 25 -16 8 -8 28 -21 47 -29 18 -8 33 -19 33 -24 0 -19 29 -12
40 9 17 31 3 58 -43 87 -23 14 -86 55 -139 89 -114 75 -137 83 -161 56z m70
-23 c6 -6 9 -17 6 -25 -3 -10 -10 -10 -28 -2 -14 6 -21 16 -18 24 6 17 25 18
40 3z m123 -105 c0 -2 -87 44 -99 52 -1 1 0 8 4 13 4 7 23 -2 51 -25 24 -20
44 -38 44 -40z"/>
<path d="M1095 3475 c-63 -109 -73 -211 -28 -303 24 -50 27 -53 35 -32 5 13
26 43 48 66 43 47 54 76 48 129 -2 19 -1 35 4 35 12 0 30 -80 26 -112 -5 -34
-1 -34 35 -5 l28 22 -16 51 c-8 28 -29 70 -46 94 -32 45 -88 100 -100 100 -4
0 -19 -20 -34 -45z"/>
<path d="M792 3423 c10 -66 30 -103 56 -103 25 -1 104 -38 130 -62 12 -12 22
-20 22 -17 10 116 8 138 -18 165 -38 37 -93 63 -150 70 l-49 6 9 -59z"/>
<path d="M2284 3414 c-36 -40 -48 -73 -25 -74 3 0 17 -10 31 -21 21 -17 22
-19 3 -10 -34 17 -47 13 -65 -16 -39 -66 -228 -271 -337 -365 -53 -46 -54 -46
-90 -33 -74 26 -171 1 -236 -62 -123 -118 -286 -183 -460 -183 -167 0 -351
118 -532 342 -64 79 -93 90 -173 63 -124 -41 -271 -177 -339 -313 -39 -79 -52
-123 -55 -189 -3 -52 0 -61 45 -127 93 -139 281 -314 449 -418 137 -85 312
-156 448 -179 l64 -11 -7 -57 c-3 -31 -8 -65 -10 -76 -2 -11 -7 -42 -10 -70
-3 -27 -8 -64 -11 -80 -3 -17 -1 -43 5 -58 14 -36 66 -86 104 -99 l30 -11 -7
-171 c-3 -94 -8 -189 -11 -211 -2 -22 -9 -83 -15 -135 -7 -52 -15 -113 -20
-135 -5 -22 -11 -59 -15 -82 -3 -23 -19 -96 -35 -163 -17 -67 -30 -132 -30
-146 0 -15 15 -39 38 -62 43 -43 102 -63 164 -58 54 5 122 49 142 89 15 33 14
41 -19 183 -19 82 -37 163 -40 179 -12 68 -35 234 -40 290 -3 33 -8 83 -10
110 -4 45 -8 236 -6 291 1 14 11 26 30 34 16 6 46 30 67 52 l37 40 -7 81 c-3
45 -8 93 -11 107 -3 14 -8 52 -11 85 -4 33 -8 63 -10 66 -2 4 18 10 44 13 188
27 402 111 557 220 73 51 100 74 178 151 78 77 101 128 102 225 0 75 1 77 58
164 69 105 172 297 242 455 35 78 57 115 69 117 22 3 20 -1 43 64 23 61 21 80
-8 80 -11 0 -27 9 -36 20 -10 11 -23 20 -29 20 -6 0 -21 9 -34 20 -13 11 -28
20 -34 20 -6 0 -19 9 -29 20 -9 11 -23 20 -30 20 -7 0 -20 9 -30 20 -24 29
-34 25 -83 -26z m76 0 c0 -10 -52 -74 -61 -74 -16 0 -10 15 19 48 25 29 42 40
42 26z m66 -47 c2 -7 -4 -29 -14 -49 l-19 -36 -31 20 c-18 11 -32 22 -32 25 0
2 12 19 27 38 22 27 30 32 46 24 10 -6 20 -16 23 -22z m-214 -248 c-38 -57
-86 -131 -108 -164 -57 -88 -124 -179 -138 -187 -7 -4 -26 4 -44 20 l-31 27
97 102 c53 56 140 149 192 206 52 57 96 103 98 102 2 -2 -28 -49 -66 -106z
m-1739 -167 c47 -99 206 -245 349 -321 246 -132 482 -112 755 62 68 43 130 67
174 67 34 0 92 -17 114 -34 18 -13 16 -14 -30 -12 -66 5 -105 -11 -227 -90
-256 -166 -414 -210 -614 -168 -206 43 -440 197 -563 369 -13 19 -30 35 -38
35 -30 0 -99 -45 -159 -104 -35 -34 -64 -59 -64 -54 0 21 77 134 123 179 52
52 132 109 151 109 6 0 19 -17 29 -38z m652 -1291 c0 -106 -3 -148 -13 -157
-14 -15 -42 -8 -43 10 -1 15 3 142 6 186 2 19 3 52 4 73 1 34 4 38 23 35 22
-3 23 -6 23 -147z m113 132 c-1 -10 2 -77 6 -150 7 -123 6 -132 -12 -142 -36
-19 -42 4 -42 161 l0 148 24 0 c17 0 24 -5 24 -17z"/>
<path d="M840 3281 c0 -4 12 -18 26 -32 14 -13 33 -37 41 -54 l15 -30 -28 27
c-56 51 -157 88 -199 71 -18 -6 -10 -53 21 -114 54 -109 126 -156 253 -166
111 -8 114 -6 94 59 -36 124 -87 191 -173 226 -27 11 -50 17 -50 13z"/>
<path d="M1468 3285 c-2 -2 -22 -5 -45 -9 -95 -12 -187 -75 -245 -165 -35 -55
-36 -73 -5 -63 12 5 42 9 67 11 73 3 179 43 202 76 5 6 8 6 8 -2 0 -6 -17 -33
-39 -60 -38 -48 -100 -94 -173 -129 -32 -15 -58 -48 -58 -74 0 -9 46 -5 125
12 165 36 261 157 300 376 l5 33 -70 -2 c-38 -1 -71 -3 -72 -4z"/>
<path d="M2905 1498 c-60 -128 -128 -276 -153 -328 -181 -388 -232 -505 -228
-516 6 -15 16 -16 116 -16 131 0 117 -7 158 80 l37 79 207 0 207 0 30 -64 c17
-35 31 -68 31 -73 0 -16 50 -24 142 -23 90 1 108 5 108 28 0 7 -110 248 -243
536 -238 511 -245 524 -274 527 -29 3 -30 2 -138 -230z m193 -363 c29 -63 52
-118 52 -123 0 -6 -210 -5 -217 1 -4 5 101 236 107 237 3 0 29 -52 58 -115z"/>
<path d="M1595 1712 c-12 -13 -2 -46 48 -153 94 -199 117 -249 239 -514 210
-455 195 -425 221 -425 14 0 29 6 34 13 5 6 46 91 91 187 44 96 99 216 122
265 23 50 55 117 70 150 15 33 50 107 77 165 142 299 139 291 119 306 -24 17
-231 18 -244 1 -5 -7 -64 -133 -131 -282 -67 -148 -126 -274 -130 -278 -4 -4
-36 57 -71 135 -35 79 -75 170 -91 203 -15 33 -45 99 -67 146 l-39 85 -121 1
c-67 0 -124 -2 -127 -5z"/>
<path d="M3691 1706 c-5 -6 -9 -230 -9 -534 0 -436 3 -524 14 -529 26 -10 216
-8 222 2 4 6 7 96 7 200 l0 190 179 3 c99 1 185 7 191 12 14 12 14 195 0 209
-6 6 -85 12 -190 13 l-180 3 0 102 c0 60 4 104 10 107 5 2 104 4 219 4 119 0
212 4 218 10 12 12 15 198 4 209 -13 13 -674 13 -685 -1z"/>
<path d="M2505 382 c-70 -15 -60 -68 21 -118 15 -10 16 -15 7 -25 -10 -9 -18
-10 -37 -1 -20 9 -25 8 -30 -5 -8 -21 -5 -24 41 -30 30 -4 42 -1 56 15 26 28
18 53 -26 81 -49 32 -50 56 -2 47 26 -5 35 -3 35 7 0 17 -39 35 -65 29z"/>
<path d="M1620 376 c0 -12 83 -176 88 -176 7 1 82 160 82 174 0 3 -9 6 -19 6
-14 0 -24 -14 -37 -50 -10 -27 -21 -50 -24 -50 -4 0 -17 23 -30 50 -16 33 -30
50 -42 50 -10 0 -18 -2 -18 -4z"/>
<path d="M1812 293 c2 -70 6 -88 18 -88 12 0 16 18 18 88 2 82 1 87 -18 87
-20 0 -21 -5 -18 -87z"/>
<path d="M1890 292 l0 -89 49 -1 c35 -1 51 3 55 13 5 15 -3 18 -46 18 -20 0
-20 -2 -22 82 -1 48 -5 60 -19 63 -15 3 -17 -6 -17 -86z"/>
<path d="M2019 370 c0 -5 0 -39 0 -75 0 -94 0 -95 16 -95 12 0 15 13 15 57 l0
58 51 -58 c28 -31 56 -57 61 -57 5 0 8 40 7 90 -1 82 -3 90 -21 90 -17 0 -19
-6 -17 -47 2 -27 1 -48 -3 -48 -3 0 -24 21 -48 48 -42 46 -59 57 -61 37z"/>
<path d="M2210 292 c0 -79 2 -88 19 -89 17 -1 19 7 19 88 1 82 -1 89 -18 89
-18 0 -20 -7 -20 -88z"/>
<path d="M2288 370 c-7 -21 7 -139 18 -150 6 -6 27 -13 46 -16 28 -5 40 -2 57
15 17 17 21 33 21 92 0 62 -2 70 -17 67 -15 -3 -18 -14 -18 -59 -1 -63 -16
-90 -45 -82 -22 6 -22 5 -24 83 -1 42 -5 55 -17 58 -10 2 -19 -2 -21 -8z"/>
<path d="M2663 292 l0 -88 38 -3 c67 -3 103 35 73 78 -9 12 -11 22 -4 26 15 9
12 42 -6 59 -9 10 -33 16 -58 16 l-42 0 -1 -88z m77 39 c0 -10 -9 -21 -20 -24
-16 -4 -20 0 -20 19 0 17 6 24 20 24 13 0 20 -7 20 -19z m-1 -60 c12 -8 12
-12 2 -25 -18 -22 -41 -20 -41 2 0 31 14 39 39 23z"/>
<path d="M2819 368 c-6 -124 -3 -159 13 -164 23 -7 98 -2 104 7 7 12 -28 26
-58 24 -21 -1 -28 3 -28 17 0 10 8 18 18 19 9 1 24 2 32 3 8 0 16 9 18 19 3
14 -4 17 -33 17 -29 0 -36 3 -33 18 2 12 14 18 41 20 24 2 37 8 37 18 0 19
-110 21 -111 2z"/>
<path d="M2967 373 c-3 -7 -2 -136 2 -163 0 -5 26 -9 56 -8 45 1 55 5 53 17
-2 10 -14 16 -33 16 -17 -1 -33 4 -37 10 -15 21 -7 32 24 31 24 -1 34 4 36 17
3 14 -4 17 -32 17 -29 0 -36 4 -36 19 0 16 7 19 40 17 32 -1 40 3 40 17 0 14
-9 17 -54 17 -30 0 -57 -3 -59 -7z"/>
<path d="M3118 373 c-3 -5 -4 -44 -4 -88 1 -64 4 -80 16 -80 10 0 16 12 18 33
4 42 24 41 45 -3 11 -23 24 -35 37 -35 20 0 20 0 2 37 -18 35 -18 37 0 55 41
41 6 88 -69 88 -23 0 -43 -3 -45 -7z m87 -49 c0 -13 -8 -20 -27 -22 -24 -3
-28 0 -28 23 0 22 4 25 28 22 19 -3 27 -9 27 -23z"/>
<path d="M3339 368 c-1 -19 -1 -99 0 -135 1 -48 31 -45 31 2 0 33 2 35 35 35
24 0 35 5 35 15 0 8 -6 15 -12 16 -7 1 -22 2 -32 3 -12 0 -20 10 -23 24 -2 19
1 23 19 22 43 -4 58 0 58 15 0 20 -110 22 -111 3z"/>
<path d="M3480 292 l0 -89 55 -1 c47 0 55 3 55 18 0 14 -7 18 -37 16 -32 -1
-38 2 -38 19 0 15 7 19 30 20 20 0 31 6 33 18 3 13 -4 17 -30 17 -28 0 -34 4
-34 21 0 18 5 20 38 17 31 -3 38 0 38 14 0 15 -9 18 -55 18 l-55 0 0 -88z"/>
<path d="M3627 359 c-21 -29 -10 -58 29 -77 36 -17 50 -59 17 -49 -10 2 -24 6
-32 8 -8 2 -16 -4 -19 -13 -2 -13 6 -19 34 -24 49 -9 69 5 69 47 0 29 -5 37
-37 54 -41 22 -45 41 -7 38 40 -3 53 5 39 22 -19 23 -76 19 -93 -6z"/>
<path d="M3740 365 c0 -15 11 -19 38 -16 10 2 13 -12 12 -51 -3 -86 -1 -98 15
-98 17 0 16 -5 18 80 2 60 4 65 25 68 46 7 15 27 -46 30 -51 2 -62 0 -62 -13z"/>
<path d="M3890 290 c0 -82 2 -91 17 -88 16 3 18 15 18 88 0 73 -2 85 -17 88
-16 3 -18 -6 -18 -88z"/>
<path d="M3950 368 c0 -18 72 -168 81 -168 4 0 12 12 17 28 6 15 24 55 41 90
29 59 29 62 10 62 -15 0 -26 -14 -42 -50 -12 -27 -24 -50 -28 -50 -3 0 -15 23
-26 50 -13 30 -28 50 -37 50 -9 0 -16 -6 -16 -12z"/>
<path d="M4138 296 c-21 -46 -38 -86 -38 -90 0 -12 29 -6 37 8 14 25 93 25 93
0 0 -10 7 -14 18 -12 9 2 16 9 15 14 -4 24 -73 164 -80 164 -4 0 -25 -38 -45
-84z m61 -27 c1 -3 -6 -6 -14 -6 -15 0 -21 28 -8 41 6 6 20 -16 22 -35z"/>
<path d="M4289 335 c-4 -141 -6 -134 52 -133 41 0 50 3 47 16 -2 12 -13 17
-35 16 l-31 -1 0 61 c0 85 0 86 -17 86 -11 0 -15 -12 -16 -45z"/>
</g>
</svg>
